<?xml version="1.0" encoding="UTF-8"?><svg id="Layer_1" xmlns="http://www.w3.org/2000/svg" xmlns:xlink="http://www.w3.org/1999/xlink" viewBox="0 0 253 253"><defs><style>.cls-1{fill:url(#linear-gradient);}.cls-2{fill:#fff;}</style><linearGradient id="linear-gradient" x1="43.74" y1="270.04" x2="209.87" y2="-17.7" gradientUnits="userSpaceOnUse"><stop offset=".05" stop-color="#7d000d"/><stop offset=".36" stop-color="#9d081a"/><stop offset=".87" stop-color="#db1935"/></linearGradient></defs><rect class="cls-1" x=".8" y=".17" width="252" height="252" rx="16.38" ry="16.38"/><path class="cls-2" d="M210.8,163.54v30.26c0,3.24-2.63,5.87-5.87,5.87H48.67c-3.24,0-5.87-2.63-5.87-5.87v-114.85c0-3.24,2.63-5.87,5.87-5.87h30.26c3.24,0,5.87,2.63,5.87,5.87v72.85c0,3.24,2.63,5.87,5.87,5.87h9.26c3.24,0,5.87-2.63,5.87-5.87v-51.26c0-3.24,2.63-5.87,5.87-5.87h30.26c3.24,0,5.87,2.63,5.87,5.87v51.26c0,3.24,2.63,5.87,5.87,5.87h51.26c3.24,0,5.87,2.63,5.87,5.87Z"/><rect class="cls-2" x="168.8" y="52.67" width="42" height="84" rx="6.72" ry="6.72"/></svg>